<svg width="30" height="30" viewBox="0 0 30 30" fill="none" xmlns="http://www.w3.org/2000/svg">
<g clip-path="url(#clip0_74_17)">
<path d="M6.97168 14.8462C6.97168 15.7707 6.81543 16.3892 6.50293 16.7017C6.20345 17.0011 5.65007 17.1509 4.84277 17.1509C4.06152 17.1509 3.52116 17.0011 3.22168 16.7017C2.9222 16.4022 2.77246 15.8032 2.77246 14.9048C2.77246 13.9803 2.9222 13.3683 3.22168 13.0688C3.53418 12.7563 4.09408 12.6001 4.90137 12.6001C5.68262 12.6001 6.22298 12.7498 6.52246 13.0493C6.82194 13.3488 6.97168 13.9478 6.97168 14.8462ZM17.0889 14.8462C17.0889 15.7707 16.9326 16.3892 16.6201 16.7017C16.3206 17.0011 15.7673 17.1509 14.96 17.1509C14.1787 17.1509 13.6383 17.0011 13.3389 16.7017C13.0394 16.4022 12.8896 15.8032 12.8896 14.9048C12.8896 13.9803 13.0394 13.3683 13.3389 13.0688C13.6514 12.7563 14.2113 12.6001 15.0186 12.6001C15.7998 12.6001 16.3402 12.7498 16.6396 13.0493C16.9391 13.3488 17.0889 13.9478 17.0889 14.8462ZM27.2061 14.8462C27.2061 15.7707 27.0498 16.3892 26.7373 16.7017C26.4378 17.0011 25.8844 17.1509 25.0771 17.1509C24.2959 17.1509 23.7555 17.0011 23.4561 16.7017C23.1566 16.4022 23.0068 15.8032 23.0068 14.9048C23.0068 13.9803 23.1566 13.3683 23.4561 13.0688C23.7686 12.7563 24.3285 12.6001 25.1357 12.6001C25.917 12.6001 26.4574 12.7498 26.7568 13.0493C27.0563 13.3488 27.2061 13.9478 27.2061 14.8462Z" fill="black"/>
</g>
<defs>
<clipPath id="clip0_74_17">
<rect width="30" height="30" fill="white"/>
</clipPath>
</defs>
</svg>
